<?xml version="1.0" encoding="utf-8"?>
<!-- Generator: Adobe Illustrator 27.5.0, SVG Export Plug-In . SVG Version: 6.00 Build 0)  -->
<svg version="1.1" xmlns="http://www.w3.org/2000/svg" xmlns:xlink="http://www.w3.org/1999/xlink" x="0px" y="0px"
	 viewBox="0 0 2200 2200" style="enable-background:new 0 0 2200 2200;" xml:space="preserve">
<g id="Background">
	<rect style="fill:#FFFFFF;" width="2200" height="2200"/>
</g>
<g id="Objects">
	<g>
		<path style="fill:#1F2C3A;" d="M1345.719,908.625c0,19.75-9.363,37.286-9.363,61.524c0,19.378-15.701,35.079-35.072,35.079
			c-0.261,0-0.516-0.014-0.777-0.021c-8.448,105.98-110.922,205.291-200.507,205.291c-91.317,0-192.203-99.312-200.514-205.291
			c-0.254,0.007-0.509,0.021-0.77,0.021c-19.371,0-35.072-15.701-35.072-35.079c0-24.238-9.363-41.775-9.363-61.524
			c0-22.926,18.588-41.513,41.52-41.513c1.052,0,2.097,0.048,3.135,0.131c0,0-1.478-16.553-1.478-32.261
			c0-118.168,75.355-189.742,186.085-189.742h32.914c110.73,0,186.085,71.574,186.085,189.742c0,15.708-1.478,32.261-1.478,32.261
			c1.038-0.082,2.083-0.131,3.135-0.131C1327.131,867.112,1345.719,885.7,1345.719,908.625z"/>
		<path style="fill:#1672C4;" d="M1453.14,1566.742c-64.838,33.3-176.588,60.391-353.14,60.391s-288.302-27.091-353.14-60.391
			c-47.099-24.185-68.555-79.953-49.745-129.445c18.326-48.229,46.489-107.981,83.64-145.095
			c59.121-59.054,138.337-92.049,162.403-101.179c47.121,44.965,103.847,70.585,156.842,70.585
			c52.392,0,108.933-25.702,156.277-70.793c23.367,8.81,103.372,41.857,162.968,101.387c37.151,37.114,65.314,96.866,83.64,145.095
			C1521.695,1486.789,1500.238,1542.557,1453.14,1566.742z"/>
		<path style="fill:#1F2C3A;" d="M814.97,802.728c0,17.236-8.171,32.54-8.171,53.693c0,16.912-13.702,30.614-30.608,30.614
			c-0.228,0-0.45-0.012-0.678-0.018c-7.373,92.49-96.803,179.161-174.985,179.161c-79.694,0-167.738-86.671-174.991-179.161
			c-0.222,0.006-0.444,0.018-0.672,0.018c-16.906,0-30.608-13.702-30.608-30.614c0-21.153-8.171-36.457-8.171-53.693
			c0-20.007,16.222-36.229,36.235-36.229c0.918,0,1.83,0.042,2.736,0.114c0,0-1.29-14.446-1.29-28.154
			c0-103.127,65.763-165.591,162.399-165.591h28.724c96.636,0,162.399,62.464,162.399,165.591c0,13.708-1.29,28.154-1.29,28.154
			c0.906-0.072,1.818-0.114,2.736-0.114C798.748,766.499,814.97,782.721,814.97,802.728z"/>
		<path style="fill:#1672C4;" d="M901.122,1163.825c-13.116,5.857-28.94,13.508-46.043,23.008
			c-40.64,22.568-75.451,48.202-103.477,76.187c-34.639,34.612-65.944,88.32-93.042,159.626c-0.763,2.007-1.478,4.015-2.145,6.036
			c-17.742,0.722-36.358,1.1-55.887,1.1c-154.078,0-251.603-23.64-308.191-52.705c-41.101-21.104-59.826-69.773-43.411-112.971
			c15.989-42.091,40.572-94.239,72.99-126.623c51.598-51.543,120.732-80.332,141.732-88.299c41.122,39.238,90.63,61.6,136.879,61.6
			c45.727,0,95.07-22.431,136.384-61.785c20.396,7.692,90.217,36.53,142.227,88.485
			C886.927,1145.265,894.262,1154.181,901.122,1163.825z"/>
		<path style="fill:#1F2C3A;" d="M1385.03,802.728c0,17.236,8.171,32.54,8.171,53.693c0,16.912,13.702,30.614,30.608,30.614
			c0.228,0,0.45-0.012,0.678-0.018c7.373,92.49,96.803,179.161,174.985,179.161c79.694,0,167.738-86.671,174.991-179.161
			c0.222,0.006,0.444,0.018,0.672,0.018c16.906,0,30.608-13.702,30.608-30.614c0-21.153,8.171-36.457,8.171-53.693
			c0-20.007-16.222-36.229-36.235-36.229c-0.918,0-1.83,0.042-2.736,0.114c0,0,1.29-14.446,1.29-28.154
			c0-103.127-65.764-165.591-162.399-165.591h-28.724c-96.635,0-162.399,62.464-162.399,165.591c0,13.708,1.29,28.154,1.29,28.154
			c-0.906-0.072-1.818-0.114-2.736-0.114C1401.252,766.499,1385.03,782.721,1385.03,802.728z"/>
		<path style="fill:#1672C4;" d="M1298.878,1163.825c13.116,5.857,28.94,13.508,46.043,23.008
			c40.64,22.568,75.451,48.202,103.477,76.187c34.639,34.612,65.944,88.32,93.042,159.626c0.763,2.007,1.478,4.015,2.145,6.036
			c17.742,0.722,36.358,1.1,55.887,1.1c154.078,0,251.603-23.64,308.191-52.705c41.101-21.104,59.826-69.773,43.411-112.971
			c-15.99-42.091-40.572-94.239-72.99-126.623c-51.598-51.543-120.732-80.332-141.732-88.299
			c-41.121,39.238-90.63,61.6-136.879,61.6c-45.727,0-95.07-22.431-136.384-61.785c-20.396,7.692-90.217,36.53-142.227,88.485
			C1313.073,1145.265,1305.738,1154.181,1298.878,1163.825z"/>
	</g>
</g>
</svg>
